<svg width="21" height="17" viewBox="0 0 21 17" fill="none" xmlns="http://www.w3.org/2000/svg">
<path fill-rule="evenodd" clip-rule="evenodd" d="M0.588 15.413C0.979333 15.8043 1.45 16 2 16H15.2565C13.8557 14.6903 13 13.627 13 12.3978C13 11.0507 14.089 10 15.475 10C16.258 10 17.0095 10.3531 17.5 10.9068C17.9905 10.3531 18.742 10 19.525 10C19.6879 10 19.8466 10.0145 20 10.0423V2C20 1.45 19.8043 0.979333 19.413 0.588C19.021 0.196 18.55 0 18 0H2C1.45 0 0.979333 0.196 0.588 0.588C0.196 0.979333 0 1.45 0 2V14C0 14.55 0.196 15.021 0.588 15.413ZM18 4L10 9L2 4V2L10 7L18 2V4Z" fill="#0080CF"/>
<path d="M17.5 17L16.9925 16.5684C15.19 15.0414 14 14.0311 14 12.7984C14 11.788 14.847 11 15.925 11C16.534 11 17.1185 11.2649 17.5 11.6801C17.8815 11.2649 18.466 11 19.075 11C20.153 11 21 11.788 21 12.7984C21 14.0311 19.81 15.0414 18.0075 16.5684L17.5 17Z" fill="#0080CF"/>
</svg>
